<svg width="499" height="159" viewBox="0 0 499 159" version="1.1" xmlns="http://www.w3.org/2000/svg" xmlns:xlink="http://www.w3.org/1999/xlink">
<title>Untitled</title>
<desc>Created using Figma</desc>
<g id="Canvas" transform="translate(336 238)">
<rect x="-336" y="-238" width="499" height="159" fill="#E5E5E5"/>
<clipPath id="clip-0" clip-rule="evenodd">
<path d="M -336 -238L 163 -238L 163 -79L -336 -79L -336 -238Z" fill="#FFFFFF"/>
</clipPath>
<g id="Processes" clip-path="url(#clip-0)">
<path d="M -336 -238L 163 -238L 163 -79L -336 -79L -336 -238Z" fill="#FFFFFF"/>
<g id="Rectangle 2">
<use xlink:href="#path0_fill" transform="translate(-336 -238)" fill="#000000" fill-opacity="0.1"/>
</g>
<g id="Rectangle 2">
<use xlink:href="#path1_fill" transform="translate(-80 -238)" fill="#000000" fill-opacity="0.1"/>
</g>
<g id="Group">
<g id="Rectangle">
<use xlink:href="#path2_fill" transform="translate(-330 -198)" fill="#F2994A"/>
</g>
<g id="Browser">
<use xlink:href="#path3_fill" transform="translate(-320 -198)" fill="#F2F2F2"/>
</g>
</g>
<g id="Group">
<g id="Rectangle">
<use xlink:href="#path4_fill" transform="translate(-227 -194)" fill="#2D9CDB"/>
</g>
<g id="UI">
<use xlink:href="#path5_fill" transform="translate(-227 -194)" fill="#F2F2F2"/>
</g>
</g>
<g id="Group">
<g id="Rectangle">
<use xlink:href="#path4_fill" transform="translate(-165 -194)" fill="#2D9CDB"/>
</g>
<g id="IO">
<use xlink:href="#path6_fill" transform="translate(-165 -194)" fill="#F2F2F2"/>
</g>
</g>
<g id="Group">
<g id="Rectangle">
<use xlink:href="#path2_fill" transform="translate(-72 -198)" fill="#F2994A"/>
</g>
<g id="Render">
<use xlink:href="#path7_fill" transform="translate(-62 -198)" fill="#F2F2F2"/>
</g>
</g>
<g id="Group">
<g id="Rectangle">
<use xlink:href="#path2_fill" transform="translate(-72 -159)" fill="#F2994A"/>
</g>
<g id="Plugin 1">
<use xlink:href="#path8_fill" transform="translate(-62 -159)" fill="#F2F2F2"/>
</g>
</g>
<g id="Group">
<g id="Rectangle">
<use xlink:href="#path2_fill" transform="translate(-72 -120)" fill="#F2994A"/>
</g>
<g id="Plugin 2...">
<use xlink:href="#path9_fill" transform="translate(-62 -120)" fill="#F2F2F2"/>
</g>
</g>
<g id="Group">
<g id="Rectangle">
<use xlink:href="#path4_fill" transform="translate(31 -194)" fill="#2D9CDB"/>
</g>
<g id="IO">
<use xlink:href="#path6_fill" transform="translate(31 -194)" fill="#F2F2F2"/>
</g>
</g>
<g id="Group">
<g id="Rectangle">
<use xlink:href="#path4_fill" transform="translate(93 -155)" fill="#2D9CDB"/>
</g>
<g id="IO">
<use xlink:href="#path6_fill" transform="translate(93 -155)" fill="#F2F2F2"/>
</g>
</g>
<g id="Group">
<g id="Rectangle">
<use xlink:href="#path4_fill" transform="translate(93 -116)" fill="#2D9CDB"/>
</g>
<g id="IO">
<use xlink:href="#path6_fill" transform="translate(93 -116)" fill="#F2F2F2"/>
</g>
</g>
<g id="Group">
<g id="Rectangle">
<use xlink:href="#path4_fill" transform="translate(93 -194)" fill="#2D9CDB"/>
</g>
<g id="Render">
<use xlink:href="#path10_fill" transform="translate(93 -194)" fill="#F2F2F2"/>
</g>
</g>
<g id="Helper executable">
<use xlink:href="#path11_fill" transform="translate(-72 -230)"/>
</g>
<g id="Main executable">
<use xlink:href="#path12_fill" transform="translate(-330 -230)"/>
</g>
<g id="Arrow">
<use xlink:href="#path13_stroke" transform="matrix(-0.351123 -0.936329 0.936329 -0.351123 -270.411 -142.096)"/>
</g>
<g id="Arrow">
<use xlink:href="#path14_stroke" transform="matrix(0.0830455 -0.996546 0.996546 0.0830455 -203 -139)"/>
</g>
<g id="Process">
<use xlink:href="#path15_fill" transform="translate(-284 -141)"/>
</g>
<g id="Thread">
<use xlink:href="#path16_fill" transform="translate(-217 -137)"/>
</g>
</g>
</g>
<defs>
<path id="path0_fill" d="M 0 0L 240 0L 240 79L 0 79L 0 0Z"/>
<path id="path1_fill" d="M 0 0L 243 0L 243 159L 0 159L 0 0Z"/>
<path id="path2_fill" d="M 0 0L 227 0L 227 33L 0 33L 0 0Z"/>
<path id="path3_fill" d="M 0.990234 21L 0.990234 12.4688L 3.7793 12.4688C 4.70508 12.4688 5.40039 12.6602 5.86523 13.043C 6.33398 13.4258 6.56836 13.9922 6.56836 14.7422C 6.56836 15.1406 6.45508 15.4941 6.22852 15.8027C 6.00195 16.1074 5.69336 16.3438 5.30273 16.5117C 5.76367 16.6406 6.12695 16.8867 6.39258 17.25C 6.66211 17.6094 6.79688 18.0391 6.79688 18.5391C 6.79688 19.3047 6.54883 19.9062 6.05273 20.3438C 5.55664 20.7812 4.85547 21 3.94922 21L 0.990234 21ZM 2.11523 17.0098L 2.11523 20.0801L 3.97266 20.0801C 4.49609 20.0801 4.9082 19.9453 5.20898 19.6758C 5.51367 19.4023 5.66602 19.0273 5.66602 18.5508C 5.66602 17.5234 5.10742 17.0098 3.99023 17.0098L 2.11523 17.0098ZM 2.11523 16.1074L 3.81445 16.1074C 4.30664 16.1074 4.69922 15.9844 4.99219 15.7383C 5.28906 15.4922 5.4375 15.1582 5.4375 14.7363C 5.4375 14.2676 5.30078 13.9277 5.02734 13.7168C 4.75391 13.502 4.33789 13.3945 3.7793 13.3945L 2.11523 13.3945L 2.11523 16.1074ZM 11.3613 15.6328C 11.1973 15.6055 11.0195 15.5918 10.8281 15.5918C 10.1172 15.5918 9.63477 15.8945 9.38086 16.5L 9.38086 21L 8.29688 21L 8.29688 14.6602L 9.35156 14.6602L 9.36914 15.3926C 9.72461 14.8262 10.2285 14.543 10.8809 14.543C 11.0918 14.543 11.252 14.5703 11.3613 14.625L 11.3613 15.6328ZM 11.959 17.7715C 11.959 17.1504 12.0801 16.5918 12.3223 16.0957C 12.5684 15.5996 12.9082 15.2168 13.3418 14.9473C 13.7793 14.6777 14.2773 14.543 14.8359 14.543C 15.6992 14.543 16.3965 14.8418 16.9277 15.4395C 17.4629 16.0371 17.7305 16.832 17.7305 17.8242L 17.7305 17.9004C 17.7305 18.5176 17.6113 19.0723 17.373 19.5645C 17.1387 20.0527 16.8008 20.4336 16.3594 20.707C 15.9219 20.9805 15.418 21.1172 14.8477 21.1172C 13.9883 21.1172 13.291 20.8184 12.7559 20.2207C 12.2246 19.623 11.959 18.832 11.959 17.8477L 11.959 17.7715ZM 13.0488 17.9004C 13.0488 18.6035 13.2109 19.168 13.5352 19.5938C 13.8633 20.0195 14.3008 20.2324 14.8477 20.2324C 15.3984 20.2324 15.8359 20.0176 16.1602 19.5879C 16.4844 19.1543 16.6465 18.5488 16.6465 17.7715C 16.6465 17.0762 16.4805 16.5137 16.1484 16.084C 15.8203 15.6504 15.3828 15.4336 14.8359 15.4336C 14.3008 15.4336 13.8691 15.6465 13.541 16.0723C 13.2129 16.498 13.0488 17.1074 13.0488 17.9004ZM 24.7031 19.5059L 25.9219 14.6602L 27.0059 14.6602L 25.1602 21L 24.2812 21L 22.7402 16.1953L 21.2402 21L 20.3613 21L 18.5215 14.6602L 19.5996 14.6602L 20.8477 19.4062L 22.3242 14.6602L 23.1973 14.6602L 24.7031 19.5059ZM 31.8047 19.3184C 31.8047 19.0254 31.6934 18.7988 31.4707 18.6387C 31.252 18.4746 30.8672 18.334 30.3164 18.2168C 29.7695 18.0996 29.334 17.959 29.0098 17.7949C 28.6895 17.6309 28.4512 17.4355 28.2949 17.209C 28.1426 16.9824 28.0664 16.7129 28.0664 16.4004C 28.0664 15.8809 28.2852 15.4414 28.7227 15.082C 29.1641 14.7227 29.7266 14.543 30.4102 14.543C 31.1289 14.543 31.7109 14.7285 32.1562 15.0996C 32.6055 15.4707 32.8301 15.9453 32.8301 16.5234L 31.7402 16.5234C 31.7402 16.2266 31.6133 15.9707 31.3594 15.7559C 31.1094 15.541 30.793 15.4336 30.4102 15.4336C 30.0156 15.4336 29.707 15.5195 29.4844 15.6914C 29.2617 15.8633 29.1504 16.0879 29.1504 16.3652C 29.1504 16.627 29.2539 16.8242 29.4609 16.957C 29.668 17.0898 30.041 17.2168 30.5801 17.3379C 31.123 17.459 31.5625 17.6035 31.8984 17.7715C 32.2344 17.9395 32.4824 18.1426 32.6426 18.3809C 32.8066 18.6152 32.8887 18.9023 32.8887 19.2422C 32.8887 19.8086 32.6621 20.2637 32.209 20.6074C 31.7559 20.9473 31.168 21.1172 30.4453 21.1172C 29.9375 21.1172 29.4883 21.0273 29.0977 20.8477C 28.707 20.668 28.4004 20.418 28.1777 20.0977C 27.959 19.7734 27.8496 19.4238 27.8496 19.0488L 28.9336 19.0488C 28.9531 19.4121 29.0977 19.7012 29.3672 19.916C 29.6406 20.127 30 20.2324 30.4453 20.2324C 30.8555 20.2324 31.1836 20.1504 31.4297 19.9863C 31.6797 19.8184 31.8047 19.5957 31.8047 19.3184ZM 36.9316 21.1172C 36.0723 21.1172 35.373 20.8359 34.834 20.2734C 34.2949 19.707 34.0254 18.9512 34.0254 18.0059L 34.0254 17.8066C 34.0254 17.1777 34.1445 16.6172 34.3828 16.125C 34.625 15.6289 34.9609 15.2422 35.3906 14.9648C 35.8242 14.6836 36.293 14.543 36.7969 14.543C 37.6211 14.543 38.2617 14.8145 38.7188 15.3574C 39.1758 15.9004 39.4043 16.6777 39.4043 17.6895L 39.4043 18.1406L 35.1094 18.1406C 35.125 18.7656 35.3066 19.2715 35.6543 19.6582C 36.0059 20.041 36.4512 20.2324 36.9902 20.2324C 37.373 20.2324 37.6973 20.1543 37.9629 19.998C 38.2285 19.8418 38.4609 19.6348 38.6602 19.377L 39.3223 19.8926C 38.791 20.709 37.9941 21.1172 36.9316 21.1172ZM 36.7969 15.4336C 36.3594 15.4336 35.9922 15.5938 35.6953 15.9141C 35.3984 16.2305 35.2148 16.6758 35.1445 17.25L 38.3203 17.25L 38.3203 17.168C 38.2891 16.6172 38.1406 16.1914 37.875 15.8906C 37.6094 15.5859 37.25 15.4336 36.7969 15.4336ZM 43.7285 15.6328C 43.5645 15.6055 43.3867 15.5918 43.1953 15.5918C 42.4844 15.5918 42.002 15.8945 41.748 16.5L 41.748 21L 40.6641 21L 40.6641 14.6602L 41.7188 14.6602L 41.7363 15.3926C 42.0918 14.8262 42.5957 14.543 43.248 14.543C 43.459 14.543 43.6191 14.5703 43.7285 14.625L 43.7285 15.6328Z"/>
<path id="path4_fill" d="M 0 0L 55 0L 55 25L 0 25L 0 0Z"/>
<path id="path5_fill" d="M 28.7256 8.89062L 28.7256 13.7246C 28.7223 14.3952 28.5107 14.9437 28.0908 15.3701C 27.6742 15.7965 27.1077 16.0358 26.3916 16.0879L 26.1426 16.0977C 25.3646 16.0977 24.7445 15.8877 24.2822 15.4678C 23.82 15.0479 23.5856 14.4701 23.5791 13.7344L 23.5791 8.89062L 24.5068 8.89062L 24.5068 13.7051C 24.5068 14.2194 24.6484 14.6198 24.9316 14.9062C 25.2148 15.1895 25.6185 15.3311 26.1426 15.3311C 26.6732 15.3311 27.0785 15.1895 27.3584 14.9062C 27.6416 14.623 27.7832 14.2243 27.7832 13.71L 27.7832 8.89062L 28.7256 8.89062ZM 31.2109 16L 30.2734 16L 30.2734 8.89062L 31.2109 8.89062L 31.2109 16Z"/>
<path id="path6_fill" d="M 24.5312 16L 23.5938 16L 23.5938 8.89062L 24.5312 8.89062L 24.5312 16ZM 31.7188 12.6748C 31.7188 13.3714 31.6016 13.9801 31.3672 14.501C 31.1328 15.0186 30.8008 15.4141 30.3711 15.6875C 29.9414 15.9609 29.4401 16.0977 28.8672 16.0977C 28.3073 16.0977 27.8109 15.9609 27.3779 15.6875C 26.945 15.4108 26.6081 15.0186 26.3672 14.5107C 26.1296 13.9997 26.0075 13.4089 26.001 12.7383L 26.001 12.2256C 26.001 11.542 26.1198 10.9382 26.3574 10.4141C 26.5951 9.88997 26.9303 9.48958 27.3633 9.21289C 27.7995 8.93294 28.2975 8.79297 28.8574 8.79297C 29.4271 8.79297 29.9284 8.93132 30.3613 9.20801C 30.7975 9.48145 31.1328 9.88021 31.3672 10.4043C 31.6016 10.9251 31.7188 11.5322 31.7188 12.2256L 31.7188 12.6748ZM 30.7861 12.2158C 30.7861 11.3727 30.6169 10.7266 30.2783 10.2773C 29.9398 9.82487 29.4661 9.59863 28.8574 9.59863C 28.265 9.59863 27.7979 9.82487 27.4561 10.2773C 27.1175 10.7266 26.9434 11.3516 26.9336 12.1523L 26.9336 12.6748C 26.9336 13.4919 27.1045 14.1348 27.4463 14.6035C 27.7913 15.069 28.265 15.3018 28.8672 15.3018C 29.4727 15.3018 29.9414 15.082 30.2734 14.6426C 30.6055 14.1999 30.7764 13.5667 30.7861 12.7432L 30.7861 12.2158Z"/>
<path id="path7_fill" d="M 4.11914 17.5488L 2.11523 17.5488L 2.11523 21L 0.984375 21L 0.984375 12.4688L 3.80859 12.4688C 4.76953 12.4688 5.50781 12.6875 6.02344 13.125C 6.54297 13.5625 6.80273 14.1992 6.80273 15.0352C 6.80273 15.5664 6.6582 16.0293 6.36914 16.4238C 6.08398 16.8184 5.68555 17.1133 5.17383 17.3086L 7.17773 20.9297L 7.17773 21L 5.9707 21L 4.11914 17.5488ZM 2.11523 16.6289L 3.84375 16.6289C 4.40234 16.6289 4.8457 16.4844 5.17383 16.1953C 5.50586 15.9062 5.67188 15.5195 5.67188 15.0352C 5.67188 14.5078 5.51367 14.1035 5.19727 13.8223C 4.88477 13.541 4.43164 13.3984 3.83789 13.3945L 2.11523 13.3945L 2.11523 16.6289ZM 10.8457 21.1172C 9.98633 21.1172 9.28711 20.8359 8.74805 20.2734C 8.20898 19.707 7.93945 18.9512 7.93945 18.0059L 7.93945 17.8066C 7.93945 17.1777 8.05859 16.6172 8.29688 16.125C 8.53906 15.6289 8.875 15.2422 9.30469 14.9648C 9.73828 14.6836 10.207 14.543 10.7109 14.543C 11.5352 14.543 12.1758 14.8145 12.6328 15.3574C 13.0898 15.9004 13.3184 16.6777 13.3184 17.6895L 13.3184 18.1406L 9.02344 18.1406C 9.03906 18.7656 9.2207 19.2715 9.56836 19.6582C 9.91992 20.041 10.3652 20.2324 10.9043 20.2324C 11.2871 20.2324 11.6113 20.1543 11.877 19.998C 12.1426 19.8418 12.375 19.6348 12.5742 19.377L 13.2363 19.8926C 12.7051 20.709 11.9082 21.1172 10.8457 21.1172ZM 10.7109 15.4336C 10.2734 15.4336 9.90625 15.5938 9.60938 15.9141C 9.3125 16.2305 9.12891 16.6758 9.05859 17.25L 12.2344 17.25L 12.2344 17.168C 12.2031 16.6172 12.0547 16.1914 11.7891 15.8906C 11.5234 15.5859 11.1641 15.4336 10.7109 15.4336ZM 15.6035 14.6602L 15.6387 15.457C 16.123 14.8477 16.7559 14.543 17.5371 14.543C 18.877 14.543 19.5527 15.2988 19.5645 16.8105L 19.5645 21L 18.4805 21L 18.4805 16.8047C 18.4766 16.3477 18.3711 16.0098 18.1641 15.791C 17.9609 15.5723 17.6426 15.4629 17.209 15.4629C 16.8574 15.4629 16.5488 15.5566 16.2832 15.7441C 16.0176 15.9316 15.8105 16.1777 15.6621 16.4824L 15.6621 21L 14.5781 21L 14.5781 14.6602L 15.6035 14.6602ZM 20.9355 17.7773C 20.9355 16.8047 21.166 16.0234 21.627 15.4336C 22.0879 14.8398 22.6914 14.543 23.4375 14.543C 24.1797 14.543 24.7676 14.7969 25.2012 15.3047L 25.2012 12L 26.2852 12L 26.2852 21L 25.2891 21L 25.2363 20.3203C 24.8027 20.8516 24.1992 21.1172 23.4258 21.1172C 22.6914 21.1172 22.0918 20.8164 21.627 20.2148C 21.166 19.6133 20.9355 18.8281 20.9355 17.8594L 20.9355 17.7773ZM 22.0195 17.9004C 22.0195 18.6191 22.168 19.1816 22.4648 19.5879C 22.7617 19.9941 23.1719 20.1973 23.6953 20.1973C 24.3828 20.1973 24.8848 19.8887 25.2012 19.2715L 25.2012 16.3594C 24.877 15.7617 24.3789 15.4629 23.707 15.4629C 23.1758 15.4629 22.7617 15.668 22.4648 16.0781C 22.168 16.4883 22.0195 17.0957 22.0195 17.9004ZM 30.6035 21.1172C 29.7441 21.1172 29.0449 20.8359 28.5059 20.2734C 27.9668 19.707 27.6973 18.9512 27.6973 18.0059L 27.6973 17.8066C 27.6973 17.1777 27.8164 16.6172 28.0547 16.125C 28.2969 15.6289 28.6328 15.2422 29.0625 14.9648C 29.4961 14.6836 29.9648 14.543 30.4688 14.543C 31.293 14.543 31.9336 14.8145 32.3906 15.3574C 32.8477 15.9004 33.0762 16.6777 33.0762 17.6895L 33.0762 18.1406L 28.7812 18.1406C 28.7969 18.7656 28.9785 19.2715 29.3262 19.6582C 29.6777 20.041 30.123 20.2324 30.6621 20.2324C 31.0449 20.2324 31.3691 20.1543 31.6348 19.998C 31.9004 19.8418 32.1328 19.6348 32.332 19.377L 32.9941 19.8926C 32.4629 20.709 31.666 21.1172 30.6035 21.1172ZM 30.4688 15.4336C 30.0312 15.4336 29.6641 15.5938 29.3672 15.9141C 29.0703 16.2305 28.8867 16.6758 28.8164 17.25L 31.9922 17.25L 31.9922 17.168C 31.9609 16.6172 31.8125 16.1914 31.5469 15.8906C 31.2812 15.5859 30.9219 15.4336 30.4688 15.4336ZM 37.4004 15.6328C 37.2363 15.6055 37.0586 15.5918 36.8672 15.5918C 36.1562 15.5918 35.6738 15.8945 35.4199 16.5L 35.4199 21L 34.3359 21L 34.3359 14.6602L 35.3906 14.6602L 35.4082 15.3926C 35.7637 14.8262 36.2676 14.543 36.9199 14.543C 37.1309 14.543 37.291 14.5703 37.4004 14.625L 37.4004 15.6328Z"/>
<path id="path8_fill" d="M 2.11523 17.6602L 2.11523 21L 0.990234 21L 0.990234 12.4688L 4.13672 12.4688C 5.07031 12.4688 5.80078 12.707 6.32812 13.1836C 6.85938 13.6602 7.125 14.291 7.125 15.0762C 7.125 15.9043 6.86523 16.543 6.3457 16.9922C 5.83008 17.4375 5.08984 17.6602 4.125 17.6602L 2.11523 17.6602ZM 2.11523 16.7402L 4.13672 16.7402C 4.73828 16.7402 5.19922 16.5996 5.51953 16.3184C 5.83984 16.0332 6 15.623 6 15.0879C 6 14.5801 5.83984 14.1738 5.51953 13.8691C 5.19922 13.5645 4.75977 13.4062 4.20117 13.3945L 2.11523 13.3945L 2.11523 16.7402ZM 9.56836 21L 8.48438 21L 8.48438 12L 9.56836 12L 9.56836 21ZM 15.2227 20.373C 14.8008 20.8691 14.1816 21.1172 13.3652 21.1172C 12.6895 21.1172 12.1738 20.9219 11.8184 20.5312C 11.4668 20.1367 11.2891 19.5547 11.2852 18.7852L 11.2852 14.6602L 12.3691 14.6602L 12.3691 18.7559C 12.3691 19.7168 12.7598 20.1973 13.541 20.1973C 14.3691 20.1973 14.9199 19.8887 15.1934 19.2715L 15.1934 14.6602L 16.2773 14.6602L 16.2773 21L 15.2461 21L 15.2227 20.373ZM 17.6719 17.7773C 17.6719 16.7891 17.9004 16.0039 18.3574 15.4219C 18.8145 14.8359 19.4199 14.543 20.1738 14.543C 20.9473 14.543 21.5508 14.8164 21.9844 15.3633L 22.0371 14.6602L 23.0273 14.6602L 23.0273 20.8477C 23.0273 21.668 22.7832 22.3145 22.2949 22.7871C 21.8105 23.2598 21.1582 23.4961 20.3379 23.4961C 19.8809 23.4961 19.4336 23.3984 18.9961 23.2031C 18.5586 23.0078 18.2246 22.7402 17.9941 22.4004L 18.5566 21.75C 19.0215 22.3242 19.5898 22.6113 20.2617 22.6113C 20.7891 22.6113 21.1992 22.4629 21.4922 22.166C 21.7891 21.8691 21.9375 21.4512 21.9375 20.9121L 21.9375 20.3672C 21.5039 20.8672 20.9121 21.1172 20.1621 21.1172C 19.4199 21.1172 18.8184 20.8184 18.3574 20.2207C 17.9004 19.623 17.6719 18.8086 17.6719 17.7773ZM 18.7617 17.9004C 18.7617 18.6152 18.9082 19.1777 19.2012 19.5879C 19.4941 19.9941 19.9043 20.1973 20.4316 20.1973C 21.1152 20.1973 21.6172 19.8867 21.9375 19.2656L 21.9375 16.3711C 21.6055 15.7656 21.1074 15.4629 20.4434 15.4629C 19.916 15.4629 19.5039 15.668 19.207 16.0781C 18.9102 16.4883 18.7617 17.0957 18.7617 17.9004ZM 25.8457 21L 24.7617 21L 24.7617 14.6602L 25.8457 14.6602L 25.8457 21ZM 24.6738 12.9785C 24.6738 12.8027 24.7266 12.6543 24.832 12.5332C 24.9414 12.4121 25.1016 12.3516 25.3125 12.3516C 25.5234 12.3516 25.6836 12.4121 25.793 12.5332C 25.9023 12.6543 25.957 12.8027 25.957 12.9785C 25.957 13.1543 25.9023 13.3008 25.793 13.418C 25.6836 13.5352 25.5234 13.5938 25.3125 13.5938C 25.1016 13.5938 24.9414 13.5352 24.832 13.418C 24.7266 13.3008 24.6738 13.1543 24.6738 12.9785ZM 28.6113 14.6602L 28.6465 15.457C 29.1309 14.8477 29.7637 14.543 30.5449 14.543C 31.8848 14.543 32.5605 15.2988 32.5723 16.8105L 32.5723 21L 31.4883 21L 31.4883 16.8047C 31.4844 16.3477 31.3789 16.0098 31.1719 15.791C 30.9688 15.5723 30.6504 15.4629 30.2168 15.4629C 29.8652 15.4629 29.5566 15.5566 29.291 15.7441C 29.0254 15.9316 28.8184 16.1777 28.6699 16.4824L 28.6699 21L 27.5859 21L 27.5859 14.6602L 28.6113 14.6602ZM 40.6348 21L 39.5449 21L 39.5449 13.7754L 37.3594 14.5781L 37.3594 13.5938L 40.4648 12.4277L 40.6348 12.4277L 40.6348 21Z"/>
<path id="path9_fill" d="M 2.11523 17.6602L 2.11523 21L 0.990234 21L 0.990234 12.4688L 4.13672 12.4688C 5.07031 12.4688 5.80078 12.707 6.32812 13.1836C 6.85938 13.6602 7.125 14.291 7.125 15.0762C 7.125 15.9043 6.86523 16.543 6.3457 16.9922C 5.83008 17.4375 5.08984 17.6602 4.125 17.6602L 2.11523 17.6602ZM 2.11523 16.7402L 4.13672 16.7402C 4.73828 16.7402 5.19922 16.5996 5.51953 16.3184C 5.83984 16.0332 6 15.623 6 15.0879C 6 14.5801 5.83984 14.1738 5.51953 13.8691C 5.19922 13.5645 4.75977 13.4062 4.20117 13.3945L 2.11523 13.3945L 2.11523 16.7402ZM 9.56836 21L 8.48438 21L 8.48438 12L 9.56836 12L 9.56836 21ZM 15.2227 20.373C 14.8008 20.8691 14.1816 21.1172 13.3652 21.1172C 12.6895 21.1172 12.1738 20.9219 11.8184 20.5312C 11.4668 20.1367 11.2891 19.5547 11.2852 18.7852L 11.2852 14.6602L 12.3691 14.6602L 12.3691 18.7559C 12.3691 19.7168 12.7598 20.1973 13.541 20.1973C 14.3691 20.1973 14.9199 19.8887 15.1934 19.2715L 15.1934 14.6602L 16.2773 14.6602L 16.2773 21L 15.2461 21L 15.2227 20.373ZM 17.6719 17.7773C 17.6719 16.7891 17.9004 16.0039 18.3574 15.4219C 18.8145 14.8359 19.4199 14.543 20.1738 14.543C 20.9473 14.543 21.5508 14.8164 21.9844 15.3633L 22.0371 14.6602L 23.0273 14.6602L 23.0273 20.8477C 23.0273 21.668 22.7832 22.3145 22.2949 22.7871C 21.8105 23.2598 21.1582 23.4961 20.3379 23.4961C 19.8809 23.4961 19.4336 23.3984 18.9961 23.2031C 18.5586 23.0078 18.2246 22.7402 17.9941 22.4004L 18.5566 21.75C 19.0215 22.3242 19.5898 22.6113 20.2617 22.6113C 20.7891 22.6113 21.1992 22.4629 21.4922 22.166C 21.7891 21.8691 21.9375 21.4512 21.9375 20.9121L 21.9375 20.3672C 21.5039 20.8672 20.9121 21.1172 20.1621 21.1172C 19.4199 21.1172 18.8184 20.8184 18.3574 20.2207C 17.9004 19.623 17.6719 18.8086 17.6719 17.7773ZM 18.7617 17.9004C 18.7617 18.6152 18.9082 19.1777 19.2012 19.5879C 19.4941 19.9941 19.9043 20.1973 20.4316 20.1973C 21.1152 20.1973 21.6172 19.8867 21.9375 19.2656L 21.9375 16.3711C 21.6055 15.7656 21.1074 15.4629 20.4434 15.4629C 19.916 15.4629 19.5039 15.668 19.207 16.0781C 18.9102 16.4883 18.7617 17.0957 18.7617 17.9004ZM 25.8457 21L 24.7617 21L 24.7617 14.6602L 25.8457 14.6602L 25.8457 21ZM 24.6738 12.9785C 24.6738 12.8027 24.7266 12.6543 24.832 12.5332C 24.9414 12.4121 25.1016 12.3516 25.3125 12.3516C 25.5234 12.3516 25.6836 12.4121 25.793 12.5332C 25.9023 12.6543 25.957 12.8027 25.957 12.9785C 25.957 13.1543 25.9023 13.3008 25.793 13.418C 25.6836 13.5352 25.5234 13.5938 25.3125 13.5938C 25.1016 13.5938 24.9414 13.5352 24.832 13.418C 24.7266 13.3008 24.6738 13.1543 24.6738 12.9785ZM 28.6113 14.6602L 28.6465 15.457C 29.1309 14.8477 29.7637 14.543 30.5449 14.543C 31.8848 14.543 32.5605 15.2988 32.5723 16.8105L 32.5723 21L 31.4883 21L 31.4883 16.8047C 31.4844 16.3477 31.3789 16.0098 31.1719 15.791C 30.9688 15.5723 30.6504 15.4629 30.2168 15.4629C 29.8652 15.4629 29.5566 15.5566 29.291 15.7441C 29.0254 15.9316 28.8184 16.1777 28.6699 16.4824L 28.6699 21L 27.5859 21L 27.5859 14.6602L 28.6113 14.6602ZM 42.6621 21L 37.0723 21L 37.0723 20.2207L 40.0254 16.9395C 40.4629 16.4434 40.7637 16.041 40.9277 15.7324C 41.0957 15.4199 41.1797 15.0977 41.1797 14.7656C 41.1797 14.3203 41.0449 13.9551 40.7754 13.6699C 40.5059 13.3848 40.1465 13.2422 39.6973 13.2422C 39.1582 13.2422 38.7383 13.3965 38.4375 13.7051C 38.1406 14.0098 37.9922 14.4355 37.9922 14.9824L 36.9082 14.9824C 36.9082 14.1973 37.1602 13.5625 37.6641 13.0781C 38.1719 12.5938 38.8496 12.3516 39.6973 12.3516C 40.4902 12.3516 41.1172 12.5605 41.5781 12.9785C 42.0391 13.3926 42.2695 13.9453 42.2695 14.6367C 42.2695 15.4766 41.7344 16.4766 40.6641 17.6367L 38.3789 20.1152L 42.6621 20.1152L 42.6621 21ZM 43.9453 20.4316C 43.9453 20.2441 44 20.0879 44.1094 19.9629C 44.2227 19.8379 44.3906 19.7754 44.6133 19.7754C 44.8359 19.7754 45.0039 19.8379 45.1172 19.9629C 45.2344 20.0879 45.293 20.2441 45.293 20.4316C 45.293 20.6113 45.2344 20.7617 45.1172 20.8828C 45.0039 21.0039 44.8359 21.0645 44.6133 21.0645C 44.3906 21.0645 44.2227 21.0039 44.1094 20.8828C 44 20.7617 43.9453 20.6113 43.9453 20.4316ZM 47.1094 20.4316C 47.1094 20.2441 47.1641 20.0879 47.2734 19.9629C 47.3867 19.8379 47.5547 19.7754 47.7773 19.7754C 48 19.7754 48.168 19.8379 48.2812 19.9629C 48.3984 20.0879 48.457 20.2441 48.457 20.4316C 48.457 20.6113 48.3984 20.7617 48.2812 20.8828C 48.168 21.0039 48 21.0645 47.7773 21.0645C 47.5547 21.0645 47.3867 21.0039 47.2734 20.8828C 47.1641 20.7617 47.1094 20.6113 47.1094 20.4316ZM 50.2734 20.4316C 50.2734 20.2441 50.3281 20.0879 50.4375 19.9629C 50.5508 19.8379 50.7188 19.7754 50.9414 19.7754C 51.1641 19.7754 51.332 19.8379 51.4453 19.9629C 51.5625 20.0879 51.6211 20.2441 51.6211 20.4316C 51.6211 20.6113 51.5625 20.7617 51.4453 20.8828C 51.332 21.0039 51.1641 21.0645 50.9414 21.0645C 50.7188 21.0645 50.5508 21.0039 50.4375 20.8828C 50.3281 20.7617 50.2734 20.6113 50.2734 20.4316Z"/>
<path id="path10_fill" d="M 15.2734 13.124L 13.6035 13.124L 13.6035 16L 12.6611 16L 12.6611 8.89062L 15.0146 8.89062C 15.8154 8.89062 16.4307 9.07292 16.8604 9.4375C 17.2933 9.80208 17.5098 10.3327 17.5098 11.0293C 17.5098 11.472 17.3893 11.8577 17.1484 12.1865C 16.9108 12.5153 16.5788 12.7611 16.1523 12.9238L 17.8223 15.9414L 17.8223 16L 16.8164 16L 15.2734 13.124ZM 13.6035 12.3574L 15.0439 12.3574C 15.5094 12.3574 15.8789 12.237 16.1523 11.9961C 16.429 11.7552 16.5674 11.4329 16.5674 11.0293C 16.5674 10.5898 16.4355 10.2529 16.1719 10.0186C 15.9115 9.78418 15.5339 9.66536 15.0391 9.66211L 13.6035 9.66211L 13.6035 12.3574ZM 20.8789 16.0977C 20.1628 16.0977 19.5801 15.8633 19.1309 15.3945C 18.6816 14.9225 18.457 14.2926 18.457 13.5049L 18.457 13.3389C 18.457 12.8148 18.5563 12.3477 18.7549 11.9375C 18.9567 11.5241 19.2367 11.2018 19.5947 10.9707C 19.9561 10.7363 20.3467 10.6191 20.7666 10.6191C 21.4535 10.6191 21.9873 10.8454 22.3682 11.2979C 22.749 11.7503 22.9395 12.3981 22.9395 13.2412L 22.9395 13.6172L 19.3604 13.6172C 19.3734 14.138 19.5247 14.5596 19.8145 14.8818C 20.1074 15.2008 20.4785 15.3604 20.9277 15.3604C 21.2467 15.3604 21.5169 15.2952 21.7383 15.165C 21.9596 15.0348 22.1533 14.8623 22.3193 14.6475L 22.8711 15.0771C 22.4284 15.7575 21.7643 16.0977 20.8789 16.0977ZM 20.7666 11.3613C 20.402 11.3613 20.096 11.4948 19.8486 11.7617C 19.6012 12.0254 19.4482 12.3965 19.3896 12.875L 22.0361 12.875L 22.0361 12.8066C 22.0101 12.3477 21.8864 11.9928 21.665 11.7422C 21.4437 11.4883 21.1442 11.3613 20.7666 11.3613ZM 24.8438 10.7168L 24.873 11.3809C 25.2767 10.873 25.804 10.6191 26.4551 10.6191C 27.5716 10.6191 28.1348 11.249 28.1445 12.5088L 28.1445 16L 27.2412 16L 27.2412 12.5039C 27.238 12.123 27.1501 11.8415 26.9775 11.6592C 26.8083 11.4769 26.543 11.3857 26.1816 11.3857C 25.8887 11.3857 25.6315 11.4639 25.4102 11.6201C 25.1888 11.7764 25.0163 11.9814 24.8926 12.2354L 24.8926 16L 23.9893 16L 23.9893 10.7168L 24.8438 10.7168ZM 29.2871 13.3145C 29.2871 12.5039 29.4792 11.8529 29.8633 11.3613C 30.2474 10.8665 30.7503 10.6191 31.3721 10.6191C 31.9906 10.6191 32.4805 10.8307 32.8418 11.2539L 32.8418 8.5L 33.7451 8.5L 33.7451 16L 32.915 16L 32.8711 15.4336C 32.5098 15.8763 32.0068 16.0977 31.3623 16.0977C 30.7503 16.0977 30.2507 15.847 29.8633 15.3457C 29.4792 14.8444 29.2871 14.1901 29.2871 13.3828L 29.2871 13.3145ZM 30.1904 13.417C 30.1904 14.016 30.3141 14.4847 30.5615 14.8232C 30.8089 15.1618 31.1507 15.3311 31.5869 15.3311C 32.1598 15.3311 32.5781 15.0739 32.8418 14.5596L 32.8418 12.1328C 32.5716 11.6348 32.1566 11.3857 31.5967 11.3857C 31.154 11.3857 30.8089 11.5566 30.5615 11.8984C 30.3141 12.2402 30.1904 12.7464 30.1904 13.417ZM 37.3438 16.0977C 36.6276 16.0977 36.0449 15.8633 35.5957 15.3945C 35.1465 14.9225 34.9219 14.2926 34.9219 13.5049L 34.9219 13.3389C 34.9219 12.8148 35.0212 12.3477 35.2197 11.9375C 35.4215 11.5241 35.7015 11.2018 36.0596 10.9707C 36.4209 10.7363 36.8115 10.6191 37.2314 10.6191C 37.9183 10.6191 38.4521 10.8454 38.833 11.2979C 39.2139 11.7503 39.4043 12.3981 39.4043 13.2412L 39.4043 13.6172L 35.8252 13.6172C 35.8382 14.138 35.9896 14.5596 36.2793 14.8818C 36.5723 15.2008 36.9434 15.3604 37.3926 15.3604C 37.7116 15.3604 37.9818 15.2952 38.2031 15.165C 38.4245 15.0348 38.6182 14.8623 38.7842 14.6475L 39.3359 15.0771C 38.8932 15.7575 38.2292 16.0977 37.3438 16.0977ZM 37.2314 11.3613C 36.8669 11.3613 36.5609 11.4948 36.3135 11.7617C 36.0661 12.0254 35.9131 12.3965 35.8545 12.875L 38.501 12.875L 38.501 12.8066C 38.4749 12.3477 38.3512 11.9928 38.1299 11.7422C 37.9085 11.4883 37.609 11.3613 37.2314 11.3613ZM 43.0078 11.5273C 42.8711 11.5046 42.723 11.4932 42.5635 11.4932C 41.971 11.4932 41.569 11.7454 41.3574 12.25L 41.3574 16L 40.4541 16L 40.4541 10.7168L 41.333 10.7168L 41.3477 11.3271C 41.6439 10.8551 42.0638 10.6191 42.6074 10.6191C 42.7832 10.6191 42.9167 10.6419 43.0078 10.6875L 43.0078 11.5273Z"/>
<path id="path11_fill" d="M 73.0879 15L 71.957 15L 71.957 11.0566L 67.6562 11.0566L 67.6562 15L 66.5312 15L 66.5312 6.46875L 67.6562 6.46875L 67.6562 10.1367L 71.957 10.1367L 71.957 6.46875L 73.0879 6.46875L 73.0879 15ZM 77.5469 15.1172C 76.6875 15.1172 75.9883 14.8359 75.4492 14.2734C 74.9102 13.707 74.6406 12.9512 74.6406 12.0059L 74.6406 11.8066C 74.6406 11.1777 74.7598 10.6172 74.998 10.125C 75.2402 9.62891 75.5762 9.24219 76.0059 8.96484C 76.4395 8.68359 76.9082 8.54297 77.4121 8.54297C 78.2363 8.54297 78.877 8.81445 79.334 9.35742C 79.791 9.90039 80.0195 10.6777 80.0195 11.6895L 80.0195 12.1406L 75.7246 12.1406C 75.7402 12.7656 75.9219 13.2715 76.2695 13.6582C 76.6211 14.041 77.0664 14.2324 77.6055 14.2324C 77.9883 14.2324 78.3125 14.1543 78.5781 13.998C 78.8438 13.8418 79.0762 13.6348 79.2754 13.377L 79.9375 13.8926C 79.4062 14.709 78.6094 15.1172 77.5469 15.1172ZM 77.4121 9.43359C 76.9746 9.43359 76.6074 9.59375 76.3105 9.91406C 76.0137 10.2305 75.8301 10.6758 75.7598 11.25L 78.9355 11.25L 78.9355 11.168C 78.9043 10.6172 78.7559 10.1914 78.4902 9.89062C 78.2246 9.58594 77.8652 9.43359 77.4121 9.43359ZM 82.457 15L 81.373 15L 81.373 6L 82.457 6L 82.457 15ZM 89.5527 11.9004C 89.5527 12.8652 89.332 13.6426 88.8906 14.2324C 88.4492 14.8223 87.8516 15.1172 87.0977 15.1172C 86.3281 15.1172 85.7227 14.873 85.2812 14.3848L 85.2812 17.4375L 84.1973 17.4375L 84.1973 8.66016L 85.1875 8.66016L 85.2402 9.36328C 85.6816 8.81641 86.2949 8.54297 87.0801 8.54297C 87.8418 8.54297 88.4434 8.83008 88.8848 9.4043C 89.3301 9.97852 89.5527 10.7773 89.5527 11.8008L 89.5527 11.9004ZM 88.4688 11.7773C 88.4688 11.0625 88.3164 10.498 88.0117 10.084C 87.707 9.66992 87.2891 9.46289 86.7578 9.46289C 86.1016 9.46289 85.6094 9.75391 85.2812 10.3359L 85.2812 13.3652C 85.6055 13.9434 86.1016 14.2324 86.7695 14.2324C 87.2891 14.2324 87.7012 14.0273 88.0059 13.6172C 88.3145 13.2031 88.4688 12.5898 88.4688 11.7773ZM 93.5664 15.1172C 92.707 15.1172 92.0078 14.8359 91.4688 14.2734C 90.9297 13.707 90.6602 12.9512 90.6602 12.0059L 90.6602 11.8066C 90.6602 11.1777 90.7793 10.6172 91.0176 10.125C 91.2598 9.62891 91.5957 9.24219 92.0254 8.96484C 92.459 8.68359 92.9277 8.54297 93.4316 8.54297C 94.2559 8.54297 94.8965 8.81445 95.3535 9.35742C 95.8105 9.90039 96.0391 10.6777 96.0391 11.6895L 96.0391 12.1406L 91.7441 12.1406C 91.7598 12.7656 91.9414 13.2715 92.2891 13.6582C 92.6406 14.041 93.0859 14.2324 93.625 14.2324C 94.0078 14.2324 94.332 14.1543 94.5977 13.998C 94.8633 13.8418 95.0957 13.6348 95.2949 13.377L 95.957 13.8926C 95.4258 14.709 94.6289 15.1172 93.5664 15.1172ZM 93.4316 9.43359C 92.9941 9.43359 92.627 9.59375 92.3301 9.91406C 92.0332 10.2305 91.8496 10.6758 91.7793 11.25L 94.9551 11.25L 94.9551 11.168C 94.9238 10.6172 94.7754 10.1914 94.5098 9.89062C 94.2441 9.58594 93.8848 9.43359 93.4316 9.43359ZM 100.363 9.63281C 100.199 9.60547 100.021 9.5918 99.8301 9.5918C 99.1191 9.5918 98.6367 9.89453 98.3828 10.5L 98.3828 15L 97.2988 15L 97.2988 8.66016L 98.3535 8.66016L 98.3711 9.39258C 98.7266 8.82617 99.2305 8.54297 99.8828 8.54297C 100.094 8.54297 100.254 8.57031 100.363 8.625L 100.363 9.63281ZM 106.973 15.1172C 106.113 15.1172 105.414 14.8359 104.875 14.2734C 104.336 13.707 104.066 12.9512 104.066 12.0059L 104.066 11.8066C 104.066 11.1777 104.186 10.6172 104.424 10.125C 104.666 9.62891 105.002 9.24219 105.432 8.96484C 105.865 8.68359 106.334 8.54297 106.838 8.54297C 107.662 8.54297 108.303 8.81445 108.76 9.35742C 109.217 9.90039 109.445 10.6777 109.445 11.6895L 109.445 12.1406L 105.15 12.1406C 105.166 12.7656 105.348 13.2715 105.695 13.6582C 106.047 14.041 106.492 14.2324 107.031 14.2324C 107.414 14.2324 107.738 14.1543 108.004 13.998C 108.27 13.8418 108.502 13.6348 108.701 13.377L 109.363 13.8926C 108.832 14.709 108.035 15.1172 106.973 15.1172ZM 106.838 9.43359C 106.4 9.43359 106.033 9.59375 105.736 9.91406C 105.439 10.2305 105.256 10.6758 105.186 11.25L 108.361 11.25L 108.361 11.168C 108.33 10.6172 108.182 10.1914 107.916 9.89062C 107.65 9.58594 107.291 9.43359 106.838 9.43359ZM 112.832 10.9746L 114.238 8.66016L 115.504 8.66016L 113.43 11.7949L 115.568 15L 114.314 15L 112.85 12.627L 111.385 15L 110.125 15L 112.264 11.7949L 110.189 8.66016L 111.443 8.66016L 112.832 10.9746ZM 119.172 15.1172C 118.312 15.1172 117.613 14.8359 117.074 14.2734C 116.535 13.707 116.266 12.9512 116.266 12.0059L 116.266 11.8066C 116.266 11.1777 116.385 10.6172 116.623 10.125C 116.865 9.62891 117.201 9.24219 117.631 8.96484C 118.064 8.68359 118.533 8.54297 119.037 8.54297C 119.861 8.54297 120.502 8.81445 120.959 9.35742C 121.416 9.90039 121.645 10.6777 121.645 11.6895L 121.645 12.1406L 117.35 12.1406C 117.365 12.7656 117.547 13.2715 117.895 13.6582C 118.246 14.041 118.691 14.2324 119.23 14.2324C 119.613 14.2324 119.938 14.1543 120.203 13.998C 120.469 13.8418 120.701 13.6348 120.9 13.377L 121.562 13.8926C 121.031 14.709 120.234 15.1172 119.172 15.1172ZM 119.037 9.43359C 118.6 9.43359 118.232 9.59375 117.936 9.91406C 117.639 10.2305 117.455 10.6758 117.385 11.25L 120.561 11.25L 120.561 11.168C 120.529 10.6172 120.381 10.1914 120.115 9.89062C 119.85 9.58594 119.49 9.43359 119.037 9.43359ZM 125.447 14.2324C 125.834 14.2324 126.172 14.1152 126.461 13.8809C 126.75 13.6465 126.91 13.3535 126.941 13.002L 127.967 13.002C 127.947 13.3652 127.822 13.7109 127.592 14.0391C 127.361 14.3672 127.053 14.6289 126.666 14.8242C 126.283 15.0195 125.877 15.1172 125.447 15.1172C 124.584 15.1172 123.896 14.8301 123.385 14.2559C 122.877 13.6777 122.623 12.8887 122.623 11.8887L 122.623 11.707C 122.623 11.0898 122.736 10.541 122.963 10.0605C 123.189 9.58008 123.514 9.20703 123.936 8.94141C 124.361 8.67578 124.863 8.54297 125.441 8.54297C 126.152 8.54297 126.742 8.75586 127.211 9.18164C 127.684 9.60742 127.936 10.1602 127.967 10.8398L 126.941 10.8398C 126.91 10.4297 126.754 10.0938 126.473 9.83203C 126.195 9.56641 125.852 9.43359 125.441 9.43359C 124.891 9.43359 124.463 9.63281 124.158 10.0312C 123.857 10.4258 123.707 10.998 123.707 11.748L 123.707 11.9531C 123.707 12.6836 123.857 13.2461 124.158 13.6406C 124.459 14.0352 124.889 14.2324 125.447 14.2324ZM 133.1 14.373C 132.678 14.8691 132.059 15.1172 131.242 15.1172C 130.566 15.1172 130.051 14.9219 129.695 14.5312C 129.344 14.1367 129.166 13.5547 129.162 12.7852L 129.162 8.66016L 130.246 8.66016L 130.246 12.7559C 130.246 13.7168 130.637 14.1973 131.418 14.1973C 132.246 14.1973 132.797 13.8887 133.07 13.2715L 133.07 8.66016L 134.154 8.66016L 134.154 15L 133.123 15L 133.1 14.373ZM 137.277 7.125L 137.277 8.66016L 138.461 8.66016L 138.461 9.49805L 137.277 9.49805L 137.277 13.4297C 137.277 13.6836 137.33 13.875 137.436 14.0039C 137.541 14.1289 137.721 14.1914 137.975 14.1914C 138.1 14.1914 138.271 14.168 138.49 14.1211L 138.49 15C 138.205 15.0781 137.928 15.1172 137.658 15.1172C 137.174 15.1172 136.809 14.9707 136.562 14.6777C 136.316 14.3848 136.193 13.9688 136.193 13.4297L 136.193 9.49805L 135.039 9.49805L 135.039 8.66016L 136.193 8.66016L 136.193 7.125L 137.277 7.125ZM 143.646 15C 143.584 14.875 143.533 14.6523 143.494 14.332C 142.99 14.8555 142.389 15.1172 141.689 15.1172C 141.064 15.1172 140.551 14.9414 140.148 14.5898C 139.75 14.2344 139.551 13.7852 139.551 13.2422C 139.551 12.582 139.801 12.0703 140.301 11.707C 140.805 11.3398 141.512 11.1562 142.422 11.1562L 143.477 11.1562L 143.477 10.6582C 143.477 10.2793 143.363 9.97852 143.137 9.75586C 142.91 9.5293 142.576 9.41602 142.135 9.41602C 141.748 9.41602 141.424 9.51367 141.162 9.70898C 140.9 9.9043 140.77 10.1406 140.77 10.418L 139.68 10.418C 139.68 10.1016 139.791 9.79688 140.014 9.50391C 140.24 9.20703 140.545 8.97266 140.928 8.80078C 141.314 8.62891 141.738 8.54297 142.199 8.54297C 142.93 8.54297 143.502 8.72656 143.916 9.09375C 144.33 9.45703 144.545 9.95898 144.561 10.5996L 144.561 13.5176C 144.561 14.0996 144.635 14.5625 144.783 14.9062L 144.783 15L 143.646 15ZM 141.848 14.1738C 142.188 14.1738 142.51 14.0859 142.814 13.9102C 143.119 13.7344 143.34 13.5059 143.477 13.2246L 143.477 11.9238L 142.627 11.9238C 141.299 11.9238 140.635 12.3125 140.635 13.0898C 140.635 13.4297 140.748 13.6953 140.975 13.8867C 141.201 14.0781 141.492 14.1738 141.848 14.1738ZM 151.627 11.9004C 151.627 12.8691 151.404 13.6484 150.959 14.2383C 150.514 14.8242 149.916 15.1172 149.166 15.1172C 148.365 15.1172 147.746 14.834 147.309 14.2676L 147.256 15L 146.26 15L 146.26 6L 147.344 6L 147.344 9.35742C 147.781 8.81445 148.385 8.54297 149.154 8.54297C 149.924 8.54297 150.527 8.83398 150.965 9.41602C 151.406 9.99805 151.627 10.7949 151.627 11.8066L 151.627 11.9004ZM 150.543 11.7773C 150.543 11.0391 150.4 10.4688 150.115 10.0664C 149.83 9.66406 149.42 9.46289 148.885 9.46289C 148.17 9.46289 147.656 9.79492 147.344 10.459L 147.344 13.2012C 147.676 13.8652 148.193 14.1973 148.896 14.1973C 149.416 14.1973 149.82 13.9961 150.109 13.5938C 150.398 13.1914 150.543 12.5859 150.543 11.7773ZM 154.176 15L 153.092 15L 153.092 6L 154.176 6L 154.176 15ZM 158.547 15.1172C 157.688 15.1172 156.988 14.8359 156.449 14.2734C 155.91 13.707 155.641 12.9512 155.641 12.0059L 155.641 11.8066C 155.641 11.1777 155.76 10.6172 155.998 10.125C 156.24 9.62891 156.576 9.24219 157.006 8.96484C 157.439 8.68359 157.908 8.54297 158.412 8.54297C 159.236 8.54297 159.877 8.81445 160.334 9.35742C 160.791 9.90039 161.02 10.6777 161.02 11.6895L 161.02 12.1406L 156.725 12.1406C 156.74 12.7656 156.922 13.2715 157.27 13.6582C 157.621 14.041 158.066 14.2324 158.605 14.2324C 158.988 14.2324 159.312 14.1543 159.578 13.998C 159.844 13.8418 160.076 13.6348 160.275 13.377L 160.938 13.8926C 160.406 14.709 159.609 15.1172 158.547 15.1172ZM 158.412 9.43359C 157.975 9.43359 157.607 9.59375 157.311 9.91406C 157.014 10.2305 156.83 10.6758 156.76 11.25L 159.936 11.25L 159.936 11.168C 159.904 10.6172 159.756 10.1914 159.49 9.89062C 159.225 9.58594 158.865 9.43359 158.412 9.43359Z"/>
<path id="path12_fill" d="M 72.2148 6.46875L 75.0039 13.4297L 77.793 6.46875L 79.252 6.46875L 79.252 15L 78.127 15L 78.127 11.6777L 78.2324 8.0918L 75.4316 15L 74.5703 15L 71.7754 8.10938L 71.8867 11.6777L 71.8867 15L 70.7617 15L 70.7617 6.46875L 72.2148 6.46875ZM 84.9824 15C 84.9199 14.875 84.8691 14.6523 84.8301 14.332C 84.3262 14.8555 83.7246 15.1172 83.0254 15.1172C 82.4004 15.1172 81.8867 14.9414 81.4844 14.5898C 81.0859 14.2344 80.8867 13.7852 80.8867 13.2422C 80.8867 12.582 81.1367 12.0703 81.6367 11.707C 82.1406 11.3398 82.8477 11.1562 83.7578 11.1562L 84.8125 11.1562L 84.8125 10.6582C 84.8125 10.2793 84.6992 9.97852 84.4727 9.75586C 84.2461 9.5293 83.9121 9.41602 83.4707 9.41602C 83.084 9.41602 82.7598 9.51367 82.498 9.70898C 82.2363 9.9043 82.1055 10.1406 82.1055 10.418L 81.0156 10.418C 81.0156 10.1016 81.127 9.79688 81.3496 9.50391C 81.5762 9.20703 81.8809 8.97266 82.2637 8.80078C 82.6504 8.62891 83.0742 8.54297 83.5352 8.54297C 84.2656 8.54297 84.8379 8.72656 85.252 9.09375C 85.666 9.45703 85.8809 9.95898 85.8965 10.5996L 85.8965 13.5176C 85.8965 14.0996 85.9707 14.5625 86.1191 14.9062L 86.1191 15L 84.9824 15ZM 83.1836 14.1738C 83.5234 14.1738 83.8457 14.0859 84.1504 13.9102C 84.4551 13.7344 84.6758 13.5059 84.8125 13.2246L 84.8125 11.9238L 83.9629 11.9238C 82.6348 11.9238 81.9707 12.3125 81.9707 13.0898C 81.9707 13.4297 82.084 13.6953 82.3105 13.8867C 82.5371 14.0781 82.8281 14.1738 83.1836 14.1738ZM 88.7734 15L 87.6895 15L 87.6895 8.66016L 88.7734 8.66016L 88.7734 15ZM 87.6016 6.97852C 87.6016 6.80273 87.6543 6.6543 87.7598 6.5332C 87.8691 6.41211 88.0293 6.35156 88.2402 6.35156C 88.4512 6.35156 88.6113 6.41211 88.7207 6.5332C 88.8301 6.6543 88.8848 6.80273 88.8848 6.97852C 88.8848 7.1543 88.8301 7.30078 88.7207 7.41797C 88.6113 7.53516 88.4512 7.59375 88.2402 7.59375C 88.0293 7.59375 87.8691 7.53516 87.7598 7.41797C 87.6543 7.30078 87.6016 7.1543 87.6016 6.97852ZM 91.5391 8.66016L 91.5742 9.45703C 92.0586 8.84766 92.6914 8.54297 93.4727 8.54297C 94.8125 8.54297 95.4883 9.29883 95.5 10.8105L 95.5 15L 94.416 15L 94.416 10.8047C 94.4121 10.3477 94.3066 10.0098 94.0996 9.79102C 93.8965 9.57227 93.5781 9.46289 93.1445 9.46289C 92.793 9.46289 92.4844 9.55664 92.2188 9.74414C 91.9531 9.93164 91.7461 10.1777 91.5977 10.4824L 91.5977 15L 90.5137 15L 90.5137 8.66016L 91.5391 8.66016ZM 102.742 15.1172C 101.883 15.1172 101.184 14.8359 100.645 14.2734C 100.105 13.707 99.8359 12.9512 99.8359 12.0059L 99.8359 11.8066C 99.8359 11.1777 99.9551 10.6172 100.193 10.125C 100.436 9.62891 100.771 9.24219 101.201 8.96484C 101.635 8.68359 102.104 8.54297 102.607 8.54297C 103.432 8.54297 104.072 8.81445 104.529 9.35742C 104.986 9.90039 105.215 10.6777 105.215 11.6895L 105.215 12.1406L 100.92 12.1406C 100.936 12.7656 101.117 13.2715 101.465 13.6582C 101.816 14.041 102.262 14.2324 102.801 14.2324C 103.184 14.2324 103.508 14.1543 103.773 13.998C 104.039 13.8418 104.271 13.6348 104.471 13.377L 105.133 13.8926C 104.602 14.709 103.805 15.1172 102.742 15.1172ZM 102.607 9.43359C 102.17 9.43359 101.803 9.59375 101.506 9.91406C 101.209 10.2305 101.025 10.6758 100.955 11.25L 104.131 11.25L 104.131 11.168C 104.1 10.6172 103.951 10.1914 103.686 9.89062C 103.42 9.58594 103.061 9.43359 102.607 9.43359ZM 108.602 10.9746L 110.008 8.66016L 111.273 8.66016L 109.199 11.7949L 111.338 15L 110.084 15L 108.619 12.627L 107.154 15L 105.895 15L 108.033 11.7949L 105.959 8.66016L 107.213 8.66016L 108.602 10.9746ZM 114.941 15.1172C 114.082 15.1172 113.383 14.8359 112.844 14.2734C 112.305 13.707 112.035 12.9512 112.035 12.0059L 112.035 11.8066C 112.035 11.1777 112.154 10.6172 112.393 10.125C 112.635 9.62891 112.971 9.24219 113.4 8.96484C 113.834 8.68359 114.303 8.54297 114.807 8.54297C 115.631 8.54297 116.271 8.81445 116.729 9.35742C 117.186 9.90039 117.414 10.6777 117.414 11.6895L 117.414 12.1406L 113.119 12.1406C 113.135 12.7656 113.316 13.2715 113.664 13.6582C 114.016 14.041 114.461 14.2324 115 14.2324C 115.383 14.2324 115.707 14.1543 115.973 13.998C 116.238 13.8418 116.471 13.6348 116.67 13.377L 117.332 13.8926C 116.801 14.709 116.004 15.1172 114.941 15.1172ZM 114.807 9.43359C 114.369 9.43359 114.002 9.59375 113.705 9.91406C 113.408 10.2305 113.225 10.6758 113.154 11.25L 116.33 11.25L 116.33 11.168C 116.299 10.6172 116.15 10.1914 115.885 9.89062C 115.619 9.58594 115.26 9.43359 114.807 9.43359ZM 121.217 14.2324C 121.604 14.2324 121.941 14.1152 122.23 13.8809C 122.52 13.6465 122.68 13.3535 122.711 13.002L 123.736 13.002C 123.717 13.3652 123.592 13.7109 123.361 14.0391C 123.131 14.3672 122.822 14.6289 122.436 14.8242C 122.053 15.0195 121.646 15.1172 121.217 15.1172C 120.354 15.1172 119.666 14.8301 119.154 14.2559C 118.646 13.6777 118.393 12.8887 118.393 11.8887L 118.393 11.707C 118.393 11.0898 118.506 10.541 118.732 10.0605C 118.959 9.58008 119.283 9.20703 119.705 8.94141C 120.131 8.67578 120.633 8.54297 121.211 8.54297C 121.922 8.54297 122.512 8.75586 122.98 9.18164C 123.453 9.60742 123.705 10.1602 123.736 10.8398L 122.711 10.8398C 122.68 10.4297 122.523 10.0938 122.242 9.83203C 121.965 9.56641 121.621 9.43359 121.211 9.43359C 120.66 9.43359 120.232 9.63281 119.928 10.0312C 119.627 10.4258 119.477 10.998 119.477 11.748L 119.477 11.9531C 119.477 12.6836 119.627 13.2461 119.928 13.6406C 120.229 14.0352 120.658 14.2324 121.217 14.2324ZM 128.869 14.373C 128.447 14.8691 127.828 15.1172 127.012 15.1172C 126.336 15.1172 125.82 14.9219 125.465 14.5312C 125.113 14.1367 124.936 13.5547 124.932 12.7852L 124.932 8.66016L 126.016 8.66016L 126.016 12.7559C 126.016 13.7168 126.406 14.1973 127.188 14.1973C 128.016 14.1973 128.566 13.8887 128.84 13.2715L 128.84 8.66016L 129.924 8.66016L 129.924 15L 128.893 15L 128.869 14.373ZM 133.047 7.125L 133.047 8.66016L 134.23 8.66016L 134.23 9.49805L 133.047 9.49805L 133.047 13.4297C 133.047 13.6836 133.1 13.875 133.205 14.0039C 133.311 14.1289 133.49 14.1914 133.744 14.1914C 133.869 14.1914 134.041 14.168 134.26 14.1211L 134.26 15C 133.975 15.0781 133.697 15.1172 133.428 15.1172C 132.943 15.1172 132.578 14.9707 132.332 14.6777C 132.086 14.3848 131.963 13.9688 131.963 13.4297L 131.963 9.49805L 130.809 9.49805L 130.809 8.66016L 131.963 8.66016L 131.963 7.125L 133.047 7.125ZM 139.416 15C 139.354 14.875 139.303 14.6523 139.264 14.332C 138.76 14.8555 138.158 15.1172 137.459 15.1172C 136.834 15.1172 136.32 14.9414 135.918 14.5898C 135.52 14.2344 135.32 13.7852 135.32 13.2422C 135.32 12.582 135.57 12.0703 136.07 11.707C 136.574 11.3398 137.281 11.1562 138.191 11.1562L 139.246 11.1562L 139.246 10.6582C 139.246 10.2793 139.133 9.97852 138.906 9.75586C 138.68 9.5293 138.346 9.41602 137.904 9.41602C 137.518 9.41602 137.193 9.51367 136.932 9.70898C 136.67 9.9043 136.539 10.1406 136.539 10.418L 135.449 10.418C 135.449 10.1016 135.561 9.79688 135.783 9.50391C 136.01 9.20703 136.314 8.97266 136.697 8.80078C 137.084 8.62891 137.508 8.54297 137.969 8.54297C 138.699 8.54297 139.271 8.72656 139.686 9.09375C 140.1 9.45703 140.314 9.95898 140.33 10.5996L 140.33 13.5176C 140.33 14.0996 140.404 14.5625 140.553 14.9062L 140.553 15L 139.416 15ZM 137.617 14.1738C 137.957 14.1738 138.279 14.0859 138.584 13.9102C 138.889 13.7344 139.109 13.5059 139.246 13.2246L 139.246 11.9238L 138.396 11.9238C 137.068 11.9238 136.404 12.3125 136.404 13.0898C 136.404 13.4297 136.518 13.6953 136.744 13.8867C 136.971 14.0781 137.262 14.1738 137.617 14.1738ZM 147.396 11.9004C 147.396 12.8691 147.174 13.6484 146.729 14.2383C 146.283 14.8242 145.686 15.1172 144.936 15.1172C 144.135 15.1172 143.516 14.834 143.078 14.2676L 143.025 15L 142.029 15L 142.029 6L 143.113 6L 143.113 9.35742C 143.551 8.81445 144.154 8.54297 144.924 8.54297C 145.693 8.54297 146.297 8.83398 146.734 9.41602C 147.176 9.99805 147.396 10.7949 147.396 11.8066L 147.396 11.9004ZM 146.312 11.7773C 146.312 11.0391 146.17 10.4688 145.885 10.0664C 145.6 9.66406 145.189 9.46289 144.654 9.46289C 143.939 9.46289 143.426 9.79492 143.113 10.459L 143.113 13.2012C 143.445 13.8652 143.963 14.1973 144.666 14.1973C 145.186 14.1973 145.59 13.9961 145.879 13.5938C 146.168 13.1914 146.312 12.5859 146.312 11.7773ZM 149.945 15L 148.861 15L 148.861 6L 149.945 6L 149.945 15ZM 154.316 15.1172C 153.457 15.1172 152.758 14.8359 152.219 14.2734C 151.68 13.707 151.41 12.9512 151.41 12.0059L 151.41 11.8066C 151.41 11.1777 151.529 10.6172 151.768 10.125C 152.01 9.62891 152.346 9.24219 152.775 8.96484C 153.209 8.68359 153.678 8.54297 154.182 8.54297C 155.006 8.54297 155.646 8.81445 156.104 9.35742C 156.561 9.90039 156.789 10.6777 156.789 11.6895L 156.789 12.1406L 152.494 12.1406C 152.51 12.7656 152.691 13.2715 153.039 13.6582C 153.391 14.041 153.836 14.2324 154.375 14.2324C 154.758 14.2324 155.082 14.1543 155.348 13.998C 155.613 13.8418 155.846 13.6348 156.045 13.377L 156.707 13.8926C 156.176 14.709 155.379 15.1172 154.316 15.1172ZM 154.182 9.43359C 153.744 9.43359 153.377 9.59375 153.08 9.91406C 152.783 10.2305 152.6 10.6758 152.529 11.25L 155.705 11.25L 155.705 11.168C 155.674 10.6172 155.525 10.1914 155.26 9.89062C 154.994 9.58594 154.635 9.43359 154.182 9.43359Z"/>
<path id="path13_stroke" d="M 33.3856 0.324984C 33.5651 0.115126 33.5404 -0.200497 33.3306 -0.379981L 29.9108 -3.30483C 29.7009 -3.48432 29.3853 -3.4597 29.2058 -3.24984C 29.0263 -3.03998 29.0509 -2.72436 29.2608 -2.54487L 32.3006 0.0549973L 29.7008 3.09485C 29.5213 3.3047 29.5459 3.62033 29.7558 3.79981C 29.9656 3.97929 30.2812 3.95467 30.4607 3.74481L 33.3856 0.324984ZM 0.0388889 3.07339L 33.0445 0.498485L 32.9667 -0.498485L -0.0388889 2.07642L 0.0388889 3.07339Z"/>
<path id="path14_stroke" d="M 36.4783 0.353553C 36.6736 0.158291 36.6736 -0.158291 36.4783 -0.353553L 33.2964 -3.53553C 33.1011 -3.7308 32.7845 -3.7308 32.5892 -3.53553C 32.394 -3.34027 32.394 -3.02369 32.5892 -2.82843L 35.4177 0L 32.5892 2.82843C 32.394 3.02369 32.394 3.34027 32.5892 3.53553C 32.7845 3.7308 33.1011 3.7308 33.2964 3.53553L 36.4783 0.353553ZM 0 0.5L 36.1248 0.5L 36.1248 -0.5L 0 -0.5L 0 0.5Z"/>
<path id="path15_fill" d="M 1.58643 5.49512L 1.58643 8L 0.742676 8L 0.742676 1.60156L 3.10254 1.60156C 3.80273 1.60156 4.35059 1.78027 4.74609 2.1377C 5.14453 2.49512 5.34375 2.96826 5.34375 3.55713C 5.34375 4.17822 5.14893 4.65723 4.75928 4.99414C 4.37256 5.32812 3.81738 5.49512 3.09375 5.49512L 1.58643 5.49512ZM 1.58643 4.80518L 3.10254 4.80518C 3.55371 4.80518 3.89941 4.69971 4.13965 4.48877C 4.37988 4.2749 4.5 3.96729 4.5 3.56592C 4.5 3.18506 4.37988 2.88037 4.13965 2.65186C 3.89941 2.42334 3.56982 2.30469 3.15088 2.2959L 1.58643 2.2959L 1.58643 4.80518ZM 8.59131 3.97461C 8.46826 3.9541 8.33496 3.94385 8.19141 3.94385C 7.6582 3.94385 7.29639 4.1709 7.10596 4.625L 7.10596 8L 6.29297 8L 6.29297 3.24512L 7.08398 3.24512L 7.09717 3.79443C 7.36377 3.36963 7.7417 3.15723 8.23096 3.15723C 8.38916 3.15723 8.50928 3.17773 8.59131 3.21875L 8.59131 3.97461ZM 9.03955 5.57861C 9.03955 5.11279 9.13037 4.69385 9.31201 4.32178C 9.49658 3.94971 9.75146 3.6626 10.0767 3.46045C 10.4048 3.2583 10.7783 3.15723 11.1973 3.15723C 11.8447 3.15723 12.3677 3.38135 12.7661 3.82959C 13.1675 4.27783 13.3682 4.87402 13.3682 5.61816L 13.3682 5.67529C 13.3682 6.13818 13.2788 6.5542 13.1001 6.92334C 12.9243 7.28955 12.6709 7.5752 12.3398 7.78027C 12.0117 7.98535 11.6338 8.08789 11.2061 8.08789C 10.5615 8.08789 10.0386 7.86377 9.63721 7.41553C 9.23877 6.96729 9.03955 6.37402 9.03955 5.63574L 9.03955 5.57861ZM 9.85693 5.67529C 9.85693 6.20264 9.97852 6.62598 10.2217 6.94531C 10.4678 7.26465 10.7959 7.42432 11.2061 7.42432C 11.6191 7.42432 11.9473 7.26318 12.1904 6.94092C 12.4336 6.61572 12.5552 6.16162 12.5552 5.57861C 12.5552 5.05713 12.4307 4.63525 12.1816 4.31299C 11.9355 3.98779 11.6074 3.8252 11.1973 3.8252C 10.7959 3.8252 10.4722 3.98486 10.2261 4.3042C 9.97998 4.62354 9.85693 5.08057 9.85693 5.67529ZM 16.2949 7.42432C 16.585 7.42432 16.8384 7.33643 17.0552 7.16064C 17.272 6.98486 17.3921 6.76514 17.4155 6.50146L 18.1846 6.50146C 18.1699 6.77393 18.0762 7.0332 17.9033 7.2793C 17.7305 7.52539 17.499 7.72168 17.209 7.86816C 16.9219 8.01465 16.6172 8.08789 16.2949 8.08789C 15.6475 8.08789 15.1318 7.87256 14.748 7.44189C 14.3672 7.0083 14.1768 6.4165 14.1768 5.6665L 14.1768 5.53027C 14.1768 5.06738 14.2617 4.65576 14.4316 4.29541C 14.6016 3.93506 14.8447 3.65527 15.1611 3.45605C 15.4805 3.25684 15.8569 3.15723 16.2905 3.15723C 16.8237 3.15723 17.2661 3.31689 17.6177 3.63623C 17.9722 3.95557 18.1611 4.37012 18.1846 4.87988L 17.4155 4.87988C 17.3921 4.57227 17.2749 4.32031 17.064 4.12402C 16.856 3.9248 16.5981 3.8252 16.2905 3.8252C 15.8774 3.8252 15.5566 3.97461 15.3281 4.27344C 15.1025 4.56934 14.9897 4.99854 14.9897 5.56104L 14.9897 5.71484C 14.9897 6.2627 15.1025 6.68457 15.3281 6.98047C 15.5537 7.27637 15.876 7.42432 16.2949 7.42432ZM 21.0718 8.08789C 20.4272 8.08789 19.9028 7.87695 19.4985 7.45508C 19.0942 7.03027 18.8921 6.46338 18.8921 5.75439L 18.8921 5.60498C 18.8921 5.1333 18.9814 4.71289 19.1602 4.34375C 19.3418 3.97168 19.5938 3.68164 19.916 3.47363C 20.2412 3.2627 20.5928 3.15723 20.9707 3.15723C 21.5889 3.15723 22.0693 3.36084 22.4121 3.76807C 22.7549 4.17529 22.9263 4.7583 22.9263 5.51709L 22.9263 5.85547L 19.7051 5.85547C 19.7168 6.32422 19.853 6.70361 20.1138 6.99365C 20.3774 7.28076 20.7114 7.42432 21.1157 7.42432C 21.4028 7.42432 21.646 7.36572 21.8452 7.24854C 22.0444 7.13135 22.2188 6.97607 22.3682 6.78271L 22.8647 7.16943C 22.4663 7.78174 21.8687 8.08789 21.0718 8.08789ZM 20.9707 3.8252C 20.6426 3.8252 20.3672 3.94531 20.1445 4.18555C 19.9219 4.42285 19.7842 4.75684 19.7314 5.1875L 22.1133 5.1875L 22.1133 5.12598C 22.0898 4.71289 21.9785 4.39355 21.7793 4.16797C 21.5801 3.93945 21.3105 3.8252 20.9707 3.8252ZM 26.6396 6.73877C 26.6396 6.51904 26.5562 6.34912 26.3892 6.229C 26.2251 6.10596 25.9365 6.00049 25.5234 5.9126C 25.1133 5.82471 24.7866 5.71924 24.5435 5.59619C 24.3032 5.47314 24.1245 5.32666 24.0073 5.15674C 23.8931 4.98682 23.8359 4.78467 23.8359 4.55029C 23.8359 4.16064 24 3.83105 24.3281 3.56152C 24.6592 3.29199 25.0811 3.15723 25.5938 3.15723C 26.1328 3.15723 26.5693 3.29639 26.9033 3.57471C 27.2402 3.85303 27.4087 4.20898 27.4087 4.64258L 26.5913 4.64258C 26.5913 4.41992 26.4961 4.22803 26.3057 4.06689C 26.1182 3.90576 25.8809 3.8252 25.5938 3.8252C 25.2979 3.8252 25.0664 3.88965 24.8994 4.01855C 24.7324 4.14746 24.6489 4.31592 24.6489 4.52393C 24.6489 4.72021 24.7266 4.86816 24.8818 4.96777C 25.0371 5.06738 25.3169 5.1626 25.7212 5.25342C 26.1284 5.34424 26.458 5.45264 26.71 5.57861C 26.9619 5.70459 27.1479 5.85693 27.2681 6.03564C 27.3911 6.21143 27.4526 6.42676 27.4526 6.68164C 27.4526 7.10645 27.2827 7.44775 26.9429 7.70557C 26.603 7.96045 26.1621 8.08789 25.6201 8.08789C 25.2393 8.08789 24.9023 8.02051 24.6094 7.88574C 24.3164 7.75098 24.0864 7.56348 23.9194 7.32324C 23.7554 7.08008 23.6733 6.81787 23.6733 6.53662L 24.4863 6.53662C 24.501 6.80908 24.6094 7.02588 24.8115 7.18701C 25.0166 7.34521 25.2861 7.42432 25.6201 7.42432C 25.9277 7.42432 26.1738 7.36279 26.3584 7.23975C 26.5459 7.11377 26.6396 6.94678 26.6396 6.73877ZM 31.2803 6.73877C 31.2803 6.51904 31.1968 6.34912 31.0298 6.229C 30.8657 6.10596 30.5771 6.00049 30.1641 5.9126C 29.7539 5.82471 29.4272 5.71924 29.1841 5.59619C 28.9438 5.47314 28.7651 5.32666 28.6479 5.15674C 28.5337 4.98682 28.4766 4.78467 28.4766 4.55029C 28.4766 4.16064 28.6406 3.83105 28.9688 3.56152C 29.2998 3.29199 29.7217 3.15723 30.2344 3.15723C 30.7734 3.15723 31.21 3.29639 31.5439 3.57471C 31.8809 3.85303 32.0493 4.20898 32.0493 4.64258L 31.2319 4.64258C 31.2319 4.41992 31.1367 4.22803 30.9463 4.06689C 30.7588 3.90576 30.5215 3.8252 30.2344 3.8252C 29.9385 3.8252 29.707 3.88965 29.54 4.01855C 29.373 4.14746 29.2896 4.31592 29.2896 4.52393C 29.2896 4.72021 29.3672 4.86816 29.5225 4.96777C 29.6777 5.06738 29.9575 5.1626 30.3618 5.25342C 30.769 5.34424 31.0986 5.45264 31.3506 5.57861C 31.6025 5.70459 31.7886 5.85693 31.9087 6.03564C 32.0317 6.21143 32.0933 6.42676 32.0933 6.68164C 32.0933 7.10645 31.9233 7.44775 31.5835 7.70557C 31.2437 7.96045 30.8027 8.08789 30.2607 8.08789C 29.8799 8.08789 29.543 8.02051 29.25 7.88574C 28.957 7.75098 28.7271 7.56348 28.5601 7.32324C 28.396 7.08008 28.314 6.81787 28.314 6.53662L 29.127 6.53662C 29.1416 6.80908 29.25 7.02588 29.4521 7.18701C 29.6572 7.34521 29.9268 7.42432 30.2607 7.42432C 30.5684 7.42432 30.8145 7.36279 30.999 7.23975C 31.1865 7.11377 31.2803 6.94678 31.2803 6.73877Z"/>
<path id="path16_fill" d="M 5.16357 2.2959L 3.10693 2.2959L 3.10693 8L 2.26758 8L 2.26758 2.2959L 0.215332 2.2959L 0.215332 1.60156L 5.16357 1.60156L 5.16357 2.2959ZM 6.79834 3.8208C 7.15869 3.37842 7.62744 3.15723 8.20459 3.15723C 9.20947 3.15723 9.71631 3.72412 9.7251 4.85791L 9.7251 8L 8.91211 8L 8.91211 4.85352C 8.90918 4.51074 8.83008 4.25732 8.6748 4.09326C 8.52246 3.9292 8.28369 3.84717 7.9585 3.84717C 7.69482 3.84717 7.46338 3.91748 7.26416 4.05811C 7.06494 4.19873 6.90967 4.3833 6.79834 4.61182L 6.79834 8L 5.98535 8L 5.98535 1.25L 6.79834 1.25L 6.79834 3.8208ZM 13.2407 3.97461C 13.1177 3.9541 12.9844 3.94385 12.8408 3.94385C 12.3076 3.94385 11.9458 4.1709 11.7554 4.625L 11.7554 8L 10.9424 8L 10.9424 3.24512L 11.7334 3.24512L 11.7466 3.79443C 12.0132 3.36963 12.3911 3.15723 12.8804 3.15723C 13.0386 3.15723 13.1587 3.17773 13.2407 3.21875L 13.2407 3.97461ZM 15.8774 8.08789C 15.2329 8.08789 14.7085 7.87695 14.3042 7.45508C 13.8999 7.03027 13.6978 6.46338 13.6978 5.75439L 13.6978 5.60498C 13.6978 5.1333 13.7871 4.71289 13.9658 4.34375C 14.1475 3.97168 14.3994 3.68164 14.7217 3.47363C 15.0469 3.2627 15.3984 3.15723 15.7764 3.15723C 16.3945 3.15723 16.875 3.36084 17.2178 3.76807C 17.5605 4.17529 17.7319 4.7583 17.7319 5.51709L 17.7319 5.85547L 14.5107 5.85547C 14.5225 6.32422 14.6587 6.70361 14.9194 6.99365C 15.1831 7.28076 15.5171 7.42432 15.9214 7.42432C 16.2085 7.42432 16.4517 7.36572 16.6509 7.24854C 16.8501 7.13135 17.0244 6.97607 17.1738 6.78271L 17.6704 7.16943C 17.272 7.78174 16.6743 8.08789 15.8774 8.08789ZM 15.7764 3.8252C 15.4482 3.8252 15.1729 3.94531 14.9502 4.18555C 14.7275 4.42285 14.5898 4.75684 14.5371 5.1875L 16.9189 5.1875L 16.9189 5.12598C 16.8955 4.71289 16.7842 4.39355 16.585 4.16797C 16.3857 3.93945 16.1162 3.8252 15.7764 3.8252ZM 21.6123 8C 21.5654 7.90625 21.5273 7.73926 21.498 7.49902C 21.1201 7.8916 20.6689 8.08789 20.1445 8.08789C 19.6758 8.08789 19.2905 7.95605 18.9888 7.69238C 18.6899 7.42578 18.5405 7.08887 18.5405 6.68164C 18.5405 6.18652 18.728 5.80273 19.103 5.53027C 19.481 5.25488 20.0112 5.11719 20.6938 5.11719L 21.4849 5.11719L 21.4849 4.74365C 21.4849 4.45947 21.3999 4.23389 21.23 4.06689C 21.0601 3.89697 20.8096 3.81201 20.4785 3.81201C 20.1885 3.81201 19.9453 3.88525 19.749 4.03174C 19.5527 4.17822 19.4546 4.35547 19.4546 4.56348L 18.6372 4.56348C 18.6372 4.32617 18.7207 4.09766 18.8877 3.87793C 19.0576 3.65527 19.2861 3.47949 19.5732 3.35059C 19.8633 3.22168 20.1812 3.15723 20.5269 3.15723C 21.0747 3.15723 21.5039 3.29492 21.8145 3.57031C 22.125 3.84277 22.2861 4.21924 22.2979 4.69971L 22.2979 6.88818C 22.2979 7.32471 22.3535 7.67188 22.4648 7.92969L 22.4648 8L 21.6123 8ZM 20.2632 7.38037C 20.5181 7.38037 20.7598 7.31445 20.9883 7.18262C 21.2168 7.05078 21.3823 6.87939 21.4849 6.66846L 21.4849 5.69287L 20.8477 5.69287C 19.8516 5.69287 19.3535 5.98438 19.3535 6.56738C 19.3535 6.82227 19.4385 7.02148 19.6084 7.16504C 19.7783 7.30859 19.9966 7.38037 20.2632 7.38037ZM 23.3745 5.58301C 23.3745 4.85352 23.5474 4.26758 23.8931 3.8252C 24.2388 3.37988 24.6914 3.15723 25.251 3.15723C 25.8076 3.15723 26.2485 3.34766 26.5737 3.72852L 26.5737 1.25L 27.3867 1.25L 27.3867 8L 26.6396 8L 26.6001 7.49023C 26.2749 7.88867 25.8223 8.08789 25.2422 8.08789C 24.6914 8.08789 24.2417 7.8623 23.8931 7.41113C 23.5474 6.95996 23.3745 6.37109 23.3745 5.64453L 23.3745 5.58301ZM 24.1875 5.67529C 24.1875 6.21436 24.2988 6.63623 24.5215 6.94092C 24.7441 7.24561 25.0518 7.39795 25.4443 7.39795C 25.96 7.39795 26.3364 7.1665 26.5737 6.70361L 26.5737 4.51953C 26.3306 4.07129 25.957 3.84717 25.4531 3.84717C 25.0547 3.84717 24.7441 4.00098 24.5215 4.30859C 24.2988 4.61621 24.1875 5.07178 24.1875 5.67529Z"/>
</defs>
</svg>
